<?xml version="1.0" standalone="no"?>
<!DOCTYPE svg PUBLIC "-//W3C//DTD SVG 20010904//EN"
 "http://www.w3.org/TR/2001/REC-SVG-20010904/DTD/svg10.dtd">
<svg version="1.0" xmlns="http://www.w3.org/2000/svg"
 width="480.000000pt" height="480.000000pt" viewBox="0 0 480.000000 480.000000"
 preserveAspectRatio="xMidYMid meet">
<metadata>
Created by potrace 1.11, written by Peter Selinger 2001-2013
</metadata>
<g transform="translate(0.000000,480.000000) scale(0.100000,-0.100000)"
fill="#000000" stroke="none">
<path d="M353 4785 c-169 -37 -302 -172 -338 -342 -22 -102 -22 -3984 0 -4086
36 -173 169 -306 342 -342 102 -22 3984 -22 4086 0 173 36 306 169 342 342 22
102 22 3984 0 4086 -36 173 -169 306 -342 342 -99 21 -3994 21 -4090 0z m2050
-784 c127 -28 265 -78 402 -146 293 -146 544 -398 690 -690 95 -193 139 -331
161 -515 17 -144 17 -273 0 -415 -22 -178 -20 -356 3 -447 25 -98 60 -183 102
-254 51 -85 181 -217 278 -284 185 -127 278 -249 269 -353 -13 -155 -121 -222
-353 -221 -151 1 -264 25 -462 97 -215 79 -374 164 -549 295 l-31 24 -109 -55
c-229 -115 -433 -167 -674 -172 -188 -4 -280 5 -436 44 -332 82 -626 266 -837
523 -173 211 -282 435 -338 697 -29 139 -36 381 -15 533 49 346 202 654 451
904 232 234 549 396 872 449 131 21 447 13 576 -14z"/>
<path d="M1922 3639 c-176 -23 -406 -118 -553 -229 -206 -155 -375 -409 -438
-659 -154 -615 172 -1231 766 -1444 233 -84 551 -82 783 6 279 105 509 304
636 552 109 210 147 359 148 575 1 206 -27 332 -113 515 -128 271 -312 456
-584 585 -195 93 -424 128 -645 99z m281 -855 c70 -24 159 -110 199 -192 29
-59 33 -76 33 -147 -1 -98 -30 -169 -101 -245 -65 -69 -136 -102 -234 -108
-127 -7 -234 41 -306 139 -131 178 -77 418 118 533 82 48 189 55 291 20z"/>
</g>
</svg>
